<?xml version="1.0" encoding="UTF-8"?>
<svg width="10px" height="16px" viewBox="0 0 10 16" version="1.1" xmlns="http://www.w3.org/2000/svg" xmlns:xlink="http://www.w3.org/1999/xlink">
    <title>Icon / Glass</title>
    <defs>
        <path d="M4.51980156,6.84585364 C4.51980156,5.32921747 4.81473243,3.3641876 5.39683284,0.999801557 L10.6420867,0.999801557 C11.2241872,3.36383481 11.5194708,5.32886468 11.5194708,6.84585364 C11.5194708,9.96062003 8.68764051,11.5178268 8.01945979,11.5178268 C7.35092629,11.5178268 4.51980156,9.96062003 4.51980156,6.84585364 M11.430921,15.0001984 L8.51936057,15.0001984 L8.51936057,12.4326064 C9.92804357,12.0251362 12.5192724,10.1232554 12.5192724,6.84585364 C12.5192724,5.16587657 12.1820069,2.98917381 11.5166485,0.376424933 C11.4605552,0.154873988 11.2608771,0 11.0322704,0 L5.00664917,0 C4.77768968,0 4.57836439,0.154873988 4.52191829,0.376424933 C3.85691266,2.98987939 3.52,5.16658214 3.52,6.84585364 C3.52,10.1232554 6.11087602,12.0247834 7.51955901,12.4326064 L7.51955901,15.0001984 L4.60835138,15.0001984 C4.33211827,15.0001984 4.1084506,15.2238661 4.1084506,15.5000992 C4.1084506,15.7763323 4.33211827,16 4.60835138,16 L11.430921,16 C11.7071541,16 11.9308218,15.7763323 11.9308218,15.5000992 C11.9308218,15.2238661 11.7071541,15.0001984 11.430921,15.0001984" id="path-1"></path>
    </defs>
    <g id="Symbols" stroke="none" stroke-width="1" fill="none" fill-rule="evenodd">
        <g id="Component-/-Tile" transform="translate(-97.000000, -298.000000)">
            <g id="Info" transform="translate(0.000000, 298.000000)">
                <g id="Icon-/-Glass" transform="translate(94.000000, 0.000000)">
                    <mask id="mask-2" fill="white">
                        <use xlink:href="#path-1"></use>
                    </mask>
                    <use id="Fill-5" fill="#000000" xlink:href="#path-1"></use>
                </g>
            </g>
        </g>
    </g>
</svg>