<?xml version="1.0" encoding="UTF-8"?>
<svg width="14px" height="16px" viewBox="0 0 14 16" version="1.1" xmlns="http://www.w3.org/2000/svg" xmlns:xlink="http://www.w3.org/1999/xlink">
    <title>Icon / Pin</title>
    <defs>
        <path d="M12.0335721,10.7532193 L7.99335333,14.7930852 L3.95348739,10.7532193 C2.87393191,9.67366379 2.2798236,8.23919563 2.2798236,6.71335333 C2.2798236,5.18751102 2.87393191,3.75233727 3.95348739,2.67313459 C5.03233727,1.59393191 6.46751102,0.999823602 7.99335333,0.999823602 C9.51919563,0.999823602 10.9540166,1.59393191 12.0335721,2.67313459 C13.1131275,3.75233727 13.7072358,5.18751102 13.7072358,6.71335333 C13.7072358,8.23919563 13.1131275,9.67366379 12.0335721,10.7532193 M7.99335333,0 C9.78626213,0 11.4722738,0.697830305 12.7409279,1.96613159 C14.0092291,3.23443288 14.7070594,4.92044452 14.7070594,6.71335333 C14.7070594,8.50626213 14.0092291,10.191921 12.7409279,11.4602223 L12.7409279,11.4602223 L8.34685482,15.8535897 C8.25301111,15.9474334 8.12600459,16 7.99335333,16 C7.86070206,16 7.73369554,15.9474334 7.63985183,15.8535897 L7.63985183,15.8535897 L3.24613159,11.4602223 C1.97783031,10.191921 1.28,8.50626213 1.28,6.71335333 C1.28,4.92044452 1.97783031,3.23443288 3.24613159,1.96613159 C4.51443288,0.697830305 6.20009173,0 7.99335333,0 Z M8.1219551,2.48897513 C5.9160741,2.48897513 4.12177104,4.2832782 4.12177104,6.48879106 C4.12177104,8.69467206 5.9160741,10.4889751 8.1219551,10.4889751 C10.327468,10.4889751 12.121771,8.69467206 12.121771,6.48879106 C12.121771,4.2832782 10.327468,2.48897513 8.1219551,2.48897513 Z M8.12193705,3.82230846 C9.59248012,3.82230846 10.7884377,5.01826604 10.7884377,6.48880911 C10.7884377,7.95902016 9.59248012,9.15564179 8.12193705,9.15564179 C6.65139398,9.15564179 5.45510437,7.95902016 5.45510437,6.48880911 C5.45510437,5.01826604 6.65139398,3.82230846 8.12193705,3.82230846 Z" id="path-1"></path>
    </defs>
    <g id="Symbols" stroke="none" stroke-width="1" fill="none" fill-rule="evenodd">
        <g id="Component-/-Tile" transform="translate(-1.000000, -298.000000)">
            <g id="Icon-/-Pin" transform="translate(0.000000, 298.000000)">
                <mask id="mask-2" fill="white">
                    <use xlink:href="#path-1"></use>
                </mask>
                <use id="Combined-Shape" fill="#000000" xlink:href="#path-1"></use>
            </g>
        </g>
    </g>
</svg>