<?xml version="1.0" encoding="UTF-8"?>
<svg width="16px" height="16px" viewBox="0 0 16 16" version="1.1" xmlns="http://www.w3.org/2000/svg" xmlns:xlink="http://www.w3.org/1999/xlink">
    <title>Icon / Grape</title>
    <defs>
        <path d="M14.2199547,8.05705782 C14.0361703,9.71041173 13.2146083,11.3415422 11.9073052,12.6488453 C10.6000021,13.9561484 8.96922438,14.7773577 7.31587047,14.961142 C5.70414143,15.1389296 4.26526142,14.6881111 3.26485355,13.6877032 C1.16879446,11.5912914 1.63478134,7.71418178 4.30406426,5.04489886 C5.8480647,3.50089842 7.79596747,2.69450477 9.56996295,2.69450477 C10.8624504,2.69450477 12.0628693,3.12274706 12.9465159,4.00639365 C13.9469238,5.00680152 14.3991533,6.44532878 14.2199547,8.05705782 M12.9465159,0.146568925 C13.1412356,-0.0488563082 13.4583607,-0.0488563082 13.6534332,0.146568925 C14.6033973,1.0965331 14.702521,2.57703798 13.9564481,3.64129416 C14.9589725,4.83254148 15.4080272,6.41851954 15.2136602,8.16746955 C15.0051831,10.04588 14.0816755,11.8883095 12.6142224,13.3557626 C11.1471222,14.8232156 9.30433985,15.7463705 7.4262822,15.9552004 C7.15713156,15.9851844 6.89150845,16 6.63047114,16 C5.03108846,16 3.60631857,15.4430028 2.55793628,14.3946205 C0.0720849854,11.9084165 0.538071867,7.39705672 3.59714699,4.33798159 C6.48795888,1.44716971 10.674433,0.875356887 13.2241326,2.92061952 C13.5941706,2.26167668 13.5063351,1.41330541 12.9465159,0.853486193 C12.7510907,0.65806096 12.7510907,0.341994158 12.9465159,0.146568925 Z M11.9990915,9.76240754 C11.8428219,10.06895 11.6579793,10.3687902 11.4487967,10.6541674 C11.2364393,10.9444833 10.9976254,11.2228055 10.7394101,11.4810208 C10.4445085,11.7759224 10.1263252,12.0429565 9.79367899,12.2757736 C9.46526583,12.5050631 9.12097877,12.7026049 8.76998941,12.8616965 C8.42076381,13.0204354 8.0634249,13.1421353 7.70679148,13.2236212 C7.57239254,13.2543108 7.48808454,13.3883569 7.51912682,13.5231086 C7.54523055,13.6388117 7.64823446,13.7171229 7.76217372,13.7171229 C7.78086964,13.7171229 7.79956556,13.7153591 7.81826147,13.7107733 C8.20770093,13.6218795 8.59714038,13.4892443 8.97670274,13.3171008 C9.3555596,13.1449573 9.72665589,12.9325999 10.0801145,12.6856727 C10.4367479,12.4362762 10.7775075,12.1498407 11.0928688,11.8344794 C11.3690745,11.5582737 11.6244677,11.2609028 11.852699,10.9497746 C12.0774027,10.6428793 12.2763555,10.3197575 12.4449715,9.98887505 C12.5074088,9.86576421 12.4583761,9.71549137 12.3352653,9.65270132 C12.2121544,9.59061677 12.0618816,9.63964945 11.9990915,9.76240754 Z" id="path-1"></path>
    </defs>
    <g id="Symbols" stroke="none" stroke-width="1" fill="none" fill-rule="evenodd">
        <g id="Component-/-Tile" transform="translate(-201.000000, -298.000000)">
            <g id="Info" transform="translate(0.000000, 298.000000)">
                <g id="Icon-/-Grape" transform="translate(201.000000, 0.000000)">
                    <mask id="mask-2" fill="white">
                        <use xlink:href="#path-1"></use>
                    </mask>
                    <use id="Combined-Shape" fill="#000000" xlink:href="#path-1"></use>
                </g>
            </g>
        </g>
    </g>
</svg>